<?xml version="1.0" encoding="utf-8"?>
<!-- Generator: Adobe Illustrator 26.1.0, SVG Export Plug-In . SVG Version: 6.00 Build 0)  -->
<svg version="1.1" id="Layer_1" xmlns="http://www.w3.org/2000/svg" xmlns:xlink="http://www.w3.org/1999/xlink" x="0px" y="0px"
	 viewBox="0 0 500 500" style="enable-background:new 0 0 500 500;" xml:space="preserve">
<style type="text/css">
	.st0{fill:#A5A5A5;}
	.st1{fill:#FFFFFF;}
	.st2{fill:#80BC2A;}
	.st3{fill:#FDDD5C;}
	.st4{fill:#FF0000;}
	.st5{fill:#07B834;}
	.st6{opacity:0.17;fill:#020202;}
</style>
<rect x="1082" y="415.9" class="st0" width="500" height="500"/>
<g>
	<ellipse class="st1" cx="1244.9" cy="675.1" rx="60.7" ry="66.8"/>
	<ellipse class="st1" cx="1419.1" cy="675.1" rx="60.7" ry="66.8"/>
	<ellipse cx="1244.9" cy="675.1" rx="3" ry="3.3"/>
	<ellipse cx="1419.1" cy="675.1" rx="3" ry="3.3"/>
</g>
<g>
	<g>
		<path d="M1333.3,781.6c-24.8,0-45.3-4.6-49-5.5c-0.3-0.1-0.6-0.5-0.5-0.9l0-0.3c0-0.5,0.4-0.8,0.8-0.7c6.1,1.5,51.5,11.6,90.7,0
			c0.4-0.1,0.7,0.2,0.8,0.7l0,0.3c0,0.4-0.2,0.8-0.5,0.9C1361.6,780.2,1346.8,781.6,1333.3,781.6z"/>
	</g>
	<g>
		<path d="M1281.3,777.4l-0.1-0.1c-0.1-0.3-0.1-0.7,0.1-1l4.1-4.7c0.3-0.4,0.8-0.3,1,0.2l0.1,0.1c0.1,0.3,0.1,0.7-0.1,1l-4.1,4.7
			C1282,777.9,1281.5,777.8,1281.3,777.4z"/>
	</g>
	<g>
		<path d="M1377,777.5l-2.3-5c-0.1-0.3-0.1-0.7,0.1-1v0c0.3-0.4,0.8-0.3,1,0.2l2.3,5c0.1,0.3,0.1,0.7-0.1,1l0,0
			C1377.7,778,1377.2,777.9,1377,777.5z"/>
	</g>
</g>
<g>
	<g>
		<path d="M1288.2,577c-4.6,5.2-11.4,5.9-17.7,7.6c-18.5,4.5-37.1,8.6-56,11.2c0,0-0.2-1-0.2-1c6-2.3,12-4.3,18-6.3
			c12.1-3.9,24.3-7.4,36.5-10.7c6.3-1.5,12.6-4.2,19.2-1.8C1287.9,576,1288.2,577,1288.2,577L1288.2,577z"/>
	</g>
	<g>
		<path d="M1376.1,580c6.5-2.4,12.9,0.3,19.2,1.8c6.1,1.6,12.2,3.3,18.3,5.1c12.2,3.6,24.3,7.4,36.2,11.9c0,0-0.2,1-0.2,1
			c-6.3-0.8-12.6-1.9-18.8-3.1c-12.5-2.3-24.9-5.1-37.2-8.1c-6.3-1.7-13.1-2.4-17.7-7.6C1375.9,580.9,1376.1,580,1376.1,580
			L1376.1,580z"/>
	</g>
</g>
<rect x="608.7" y="357.8" class="st2" width="500" height="500"/>
<g>
	<g>
		<path d="M862.1,737.8c-24.8,0-45.3-11-49-13.1c-0.3-0.2-0.6-1.1-0.5-2.1l0-0.7c0-1.1,0.4-1.9,0.8-1.7c6.1,3.4,51.5,27.3,90.7,0.1
			c0.4-0.3,0.7,0.5,0.8,1.6l0,0.7c0,1-0.2,1.9-0.5,2.2C890.4,734.6,875.6,737.8,862.1,737.8z"/>
	</g>
	<g>
		<path d="M810,727.8l-0.1-0.3c-0.1-0.8-0.1-1.8,0.1-2.4l4.1-11.1c0.3-0.9,0.8-0.6,1,0.5l0.1,0.3c0.1,0.8,0.1,1.8-0.1,2.4l-4.1,11.1
			C810.8,729.2,810.3,728.9,810,727.8z"/>
	</g>
	<g>
		<path d="M905.7,728.1l-2.3-11.8c-0.1-0.8-0.1-1.7,0.1-2.4l0,0c0.3-0.9,0.8-0.7,1,0.4l2.3,11.8c0.1,0.8,0.1,1.7-0.1,2.4l0,0
			C906.4,729.4,905.9,729.2,905.7,728.1z"/>
	</g>
</g>
<g>
	<ellipse class="st1" cx="771.3" cy="616.9" rx="60.7" ry="66.8"/>
	<ellipse class="st1" cx="945.5" cy="616.9" rx="60.7" ry="66.8"/>
	<ellipse cx="771.3" cy="616.9" rx="3" ry="3.3"/>
	<ellipse cx="945.5" cy="616.9" rx="3" ry="3.3"/>
</g>
<g>
	<g>
		<path d="M794.2,522.2c-7,1.8-13.5-1.4-20.1-3.4c0,0-4.7-1.6-4.7-1.6c-4.1-1.4-8.5-0.7-12.4,1.1c-12.5,4.9-25.1,9.7-37.9,13.7
			c0,0-0.4-0.9-0.4-0.9c5.8-3.4,11.8-6.5,17.8-9.6c6-3.1,12-6,18.1-8.9c5.1-2.8,11.3-3.7,16.9-2c0,0,4.9,1.5,4.9,1.5
			c6.5,2.2,13.6,3.5,18.2,9.1C794.5,521.3,794.2,522.2,794.2,522.2L794.2,522.2z"/>
	</g>
	<g>
		<path d="M922.4,521.3c4.6-5.7,11.7-6.9,18.2-9.1c0,0,4.9-1.5,4.9-1.5c5.6-1.7,11.8-0.8,16.9,2c6.1,2.9,12.1,5.8,18.1,8.9
			c6,3.1,11.9,6.2,17.8,9.6l-0.4,0.9c-12.9-4-25.4-8.8-37.9-13.7c-3.9-1.8-8.3-2.5-12.4-1.1c-4.6,1.6-9.6,3.3-14.3,4.7
			c-3.5,0.9-6.9,1.2-10.5,0.3C922.7,522.2,922.4,521.3,922.4,521.3L922.4,521.3z"/>
	</g>
</g>
<g>
	<rect x="-1153.3" y="-479" class="st3" width="500" height="500"/>
	<g>
		<g>
			<path class="st1" d="M-929.7-219.9c0,36.9-27.2,66.8-60.7,66.8c-33.5,0-60.7-29.9-60.7-66.8c0-6.2,0.8-12.3,2.2-18
				c34.2-24.4,79.7-26.6,115.4-5.2C-931-235.9-929.7-228.1-929.7-219.9z"/>
			<ellipse cx="-990.4" cy="-219.9" rx="3" ry="3.3"/>
		</g>
		<g>
			<ellipse class="st1" cx="-816.2" cy="-219.9" rx="60.7" ry="66.8"/>
			<ellipse cx="-816.2" cy="-219.9" rx="3" ry="3.3"/>
		</g>
	</g>
	<g>
		<path d="M-955.7-303.2c-5,4.8-11.9,4.9-18.3,6.1c-18.8,2.9-37.7,5.5-56.8,6.5c0,0-0.2-1-0.2-1c6.1-1.8,12.3-3.3,18.5-4.8
			c12.4-2.9,24.8-5.4,37.3-7.6c6.4-1,12.9-3.1,19.3-0.2C-955.9-304.1-955.7-303.2-955.7-303.2L-955.7-303.2z"/>
	</g>
	<g>
		<path d="M-849.9-315c6.5-2.4,12.9,0.3,19.2,1.8c6.1,1.6,12.2,3.3,18.3,5.1c12.2,3.6,24.3,7.4,36.2,11.9c0,0-0.2,1-0.2,1
			c-6.3-0.8-12.6-1.9-18.8-3.1c-12.5-2.3-24.9-5.1-37.2-8.1c-6.3-1.7-13.1-2.4-17.7-7.6C-850.2-314-849.9-315-849.9-315L-849.9-315z
			"/>
	</g>
	<g>
		<g>
			<path d="M-860.9-125.5h-84.7c-0.5,0-0.8-0.6-0.8-1.4v0c0-0.8,0.4-1.4,0.8-1.4h84.7c0.5,0,0.8,0.6,0.8,1.4v0
				C-860.1-126.1-860.5-125.5-860.9-125.5z"/>
		</g>
		<g>
			<path d="M-860.1-124L-860.1-124c-0.5,0-0.8-0.3-0.8-0.6v-6.1c0-0.3,0.4-0.6,0.8-0.6l0,0c0.5,0,0.8,0.3,0.8,0.6v6.1
				C-859.3-124.2-859.6-124-860.1-124z"/>
		</g>
		<g>
			<path d="M-946.4-124L-946.4-124c-0.5,0-0.8-0.3-0.8-0.6v-6.1c0-0.3,0.4-0.6,0.8-0.6l0,0c0.5,0,0.8,0.3,0.8,0.6v6.1
				C-945.6-124.2-946-124-946.4-124z"/>
		</g>
	</g>
</g>
<g>
	<rect x="-1936.3" y="-131.7" class="st4" width="500" height="500"/>
	<g>
		<path d="M-1773.4,110.6c-1.6,0-3-1.9-3-4.3c0-2.4,1.3-4.3,3-4.3"/>
	</g>
	<g>
		<path class="st1" d="M-1535.5,106.3c0,48.6-27.2,88-60.7,88s-60.7-39.4-60.7-88c0-2.9,0.1-5.7,0.3-8.6
			c0.7-10.2,6.1-19.5,14.5-25.3c27.3-18.9,59.6-21.3,88-6.4c9.9,5.2,16.6,15,17.9,26.1C-1535.8,96.8-1535.5,101.5-1535.5,106.3z"/>
		<ellipse cx="-1596.2" cy="106.3" rx="3" ry="4.3"/>
	</g>
	<g>
		<path class="st1" d="M-1715.7,106.3c0,48.6-27.2,88-60.7,88s-60.7-39.4-60.7-88c0-2.9,0.1-5.7,0.3-8.6
			c0.7-10.2,6.1-19.5,14.5-25.3c27.3-18.9,59.6-21.3,88-6.4c9.9,5.2,16.6,15,17.9,26.1C-1715.9,96.8-1715.7,101.5-1715.7,106.3z"/>
		<ellipse cx="-1776.4" cy="106.3" rx="3" ry="4.3"/>
	</g>
	<g>
		<path d="M-1740.4,33.3c-6.7,1.9-12.8-1.2-19-3.1c-18-6.2-35.9-12.7-53.3-20.6c0,0,0.3-1,0.3-1c6.3,1.2,12.4,2.8,18.6,4.4
			c12.3,3.2,24.5,6.8,36.6,10.6c6.1,2.1,12.9,3.2,17.1,8.8C-1740.1,32.3-1740.4,33.3-1740.4,33.3L-1740.4,33.3z"/>
	</g>
	<g>
		<path d="M-1607.1,32.3c4.2-5.5,11-6.6,17.1-8.8c18.2-5.7,36.5-11.1,55.1-14.9c0,0,0.3,1,0.3,1c-5.8,2.7-11.7,5.1-17.6,7.5
			c-11.8,4.7-23.7,9-35.7,13.1c-6.2,1.9-12.3,5-19,3.1C-1606.8,33.3-1607.1,32.3-1607.1,32.3L-1607.1,32.3z"/>
	</g>
	<path d="M-1647.7,223.3C-1647.7,223.3-1647.7,223.3-1647.7,223.3c0.2,2.7-3,4.1-4.9,2.4c-6.1-5.5-16.7-8.7-28.6-8
		c-6.4,0.4-12.3,1.9-17.2,4.1c-2.9,1.3-5.6-2.3-3.4-4.7c4.8-5.3,13.7-9.2,24-9.8C-1661.8,206.3-1648.3,213.5-1647.7,223.3z"/>
</g>
<ellipse class="st1" cx="620.3" cy="265.9" rx="60.7" ry="66.8"/>
<g>
	<g>
		<path class="st5" d="M-68.6,500h-498c-0.6,0-1-0.4-1-1V1c0-0.6,0.4-1,1-1h498c0.6,0,1,0.4,1,1v498C-67.6,499.6-68,500-68.6,500z"
			/>
	</g>
	<g>
		<path d="M-368.8,175.3c-7,1.8-13.5-1.4-20.1-3.4c0,0-4.7-1.6-4.7-1.6c-4.1-1.4-8.5-0.7-12.4,1.1c-12.5,4.9-25.1,9.7-37.9,13.7
			c0,0-0.4-0.9-0.4-0.9c5.8-3.4,11.8-6.5,17.8-9.6c6-3.1,12-6,18.1-8.9c5.1-2.8,11.3-3.7,16.9-2c0,0,4.9,1.5,4.9,1.5
			c6.5,2.2,13.6,3.5,18.2,9.1C-368.5,174.4-368.8,175.3-368.8,175.3L-368.8,175.3z"/>
	</g>
	<g>
		<path d="M-264.3,156c4.6-5.7,11.7-6.9,18.2-9.1c0,0,4.9-1.5,4.9-1.5c5.6-1.7,11.8-0.8,16.9,2c6.1,2.9,12.1,5.8,18.1,8.9
			c6,3.1,11.9,6.2,17.8,9.6c0,0-0.4,0.9-0.4,0.9c-12.9-4-25.4-8.8-37.9-13.7c-3.9-1.8-8.3-2.5-12.4-1.1c-4.6,1.6-9.6,3.3-14.3,4.7
			c-3.5,0.9-6.9,1.2-10.5,0.3C-264,156.9-264.3,156-264.3,156L-264.3,156z"/>
	</g>
	<path class="st1" d="M-171.5,266.3c0,15.8-5,30.4-13.4,41.8c-3.4,4.7-9.6,6.4-15,4.2c-9.9-3.9-20.8-6-32.3-6
		c-11.5,0-22.4,2.1-32.3,6c-5.4,2.1-11.6,0.5-15-4.2c-8.4-11.5-13.4-26-13.4-41.8c0-36.9,27.2-66.8,60.7-66.8
		C-198.7,199.4-171.5,229.4-171.5,266.3z"/>
	<path class="st1" d="M-345.7,266.3c0,15.7-4.9,30.1-13.1,41.5c-3.5,4.8-9.8,6.7-15.3,4.6c-9.9-3.9-20.8-6-32.2-6
		c-11.5,0-22.4,2.1-32.2,6c-5.5,2.2-11.9,0.3-15.3-4.6c-8.2-11.4-13.1-25.8-13.1-41.5c0-36.9,27.2-66.8,60.7-66.8
		C-372.9,199.4-345.7,229.4-345.7,266.3z"/>
	<ellipse cx="-406.4" cy="257.7" rx="5.7" ry="6.3"/>
	<ellipse cx="-232.2" cy="257.7" rx="5.7" ry="6.3"/>
	<g>
		<path d="M-311.8,403.9c-31.3,0-59.9-12.7-79.2-23.9c-19.6-11.4-33.3-23.6-37.2-27.2c-0.6-0.6-0.6-1.5-0.1-2.1l0,0
			c0.6-0.6,1.5-0.6,2.1-0.1c8.3,7.6,63.3,55.6,124.6,49.8c35.2-3.3,66.3-23.6,92.5-60.4c0.5-0.7,1.4-0.8,2.1-0.4l0,0
			c0.7,0.5,0.8,1.4,0.4,2.1c-26.7,37.5-58.5,58.3-94.7,61.7C-304.8,403.7-308.3,403.9-311.8,403.9z"/>
	</g>
	<g>
		<line class="st1" x1="-212.9" y1="333.7" x2="-201" y2="345.6"/>
		<path d="M-202.4,345.6l-10.5-10.5c-0.4-0.4-0.4-1,0-1.4l0,0c0.4-0.4,1-0.4,1.4,0l10.5,10.5c0.4,0.4,0.4,1,0,1.4l0,0
			C-201.4,346-202,346-202.4,345.6z"/>
	</g>
	<g>
		<line class="st1" x1="-422.3" y1="345.9" x2="-434.1" y2="357.8"/>
		<path d="M-432.7,357.8l10.5-10.5c0.4-0.4,0.4-1,0-1.4l0,0c-0.4-0.4-1-0.4-1.4,0l-10.5,10.5c-0.4,0.4-0.4,1,0,1.4l0,0
			C-433.7,358.1-433.1,358.1-432.7,357.8z"/>
	</g>
</g>
<circle class="st6" cx="250" cy="250" r="191.1"/>
</svg>
